<svg viewBox="0 0 20 20" fill="none" xmlns="http://www.w3.org/2000/svg" id="user-icon" fill="#16325c">
    <path
        d="M17.3078 14.8847V15.6462C17.3078 16.5462 16.5462 17.3077 15.6462 17.3077H2.35392C1.45392 17.3077 0.692383 16.5462 0.692383 15.6462V14.8847C0.692383 12.877 3.04623 11.6308 5.26161 10.6616L5.46931 10.5577C5.64238 10.4885 5.81546 10.4885 5.98854 10.5923C6.88854 11.1808 7.89238 11.4923 8.96546 11.4923C10.0385 11.4923 11.077 11.1462 11.9424 10.5923C12.1155 10.4885 12.2885 10.4885 12.4616 10.5577L12.6693 10.6616C14.9539 11.6308 17.3078 12.8423 17.3078 14.8847ZM9.00006 0.692383C11.2847 0.692383 13.1193 2.73469 13.1193 5.26161C13.1193 7.78854 11.2847 9.83084 9.00006 9.83084C6.71545 9.83084 4.88083 7.78854 4.88083 5.26161C4.88083 2.73469 6.71545 0.692383 9.00006 0.692383Z"
        />
</svg>